<svg width="978" height="258" viewBox="0 0 978 258" fill="none" xmlns="http://www.w3.org/2000/svg">
<path d="M267.259 35.75H270.059V38H254.159V35.75H257.659C258.359 35.75 258.709 35.5833 258.709 35.25C258.709 35.0167 258.575 34.7333 258.309 34.4L248.109 21.55H243.659V34.3C243.659 35.2667 244.409 35.75 245.909 35.75H249.209V38H233.009V35.75H236.609C237.109 35.75 237.575 35.6167 238.009 35.35C238.475 35.05 238.709 34.7 238.709 34.3V5.7C238.709 5.13333 238.475 4.61666 238.009 4.15C237.575 3.68333 237.009 3.45 236.309 3.45H233.009V1.2H251.159C254.792 1.2 257.642 2.21666 259.709 4.25C261.809 6.25 262.859 8.78333 262.859 11.85C262.859 17.55 259.659 20.7333 253.259 21.4L263.559 34.4C264.325 35.3 265.559 35.75 267.259 35.75ZM243.659 5.45V19.3H250.109C255.042 19.3 257.509 16.8 257.509 11.8C257.509 6.76667 255.959 4.05 252.859 3.65C251.825 3.51666 250.242 3.45 248.109 3.45C245.975 3.45 244.692 3.65 244.259 4.05C243.859 4.41666 243.659 4.88333 243.659 5.45ZM293.023 36.4C290.19 34.6667 287.907 32.3667 286.173 29.5C284.44 26.6333 283.573 23.4667 283.573 20C283.573 16.5333 284.44 13.35 286.173 10.45C287.907 7.51666 290.19 5.16666 293.023 3.4C295.857 1.63333 298.99 0.749997 302.423 0.749997C305.857 0.749997 308.973 1.58333 311.773 3.25C314.607 4.91666 316.89 7.21666 318.623 10.15C320.39 13.05 321.273 16.3167 321.273 19.95C321.273 23.55 320.39 26.7833 318.623 29.65C316.89 32.5167 314.607 34.8 311.773 36.5C308.973 38.1667 305.857 39 302.423 39C298.99 39 295.857 38.1333 293.023 36.4ZM302.723 3.4H301.073C298.24 3.4 295.607 5.03333 293.173 8.3C290.74 11.5667 289.523 15.5333 289.523 20.2C289.523 24.8667 290.823 28.7167 293.423 31.75C296.023 34.7833 299.14 36.3 302.773 36.3C306.44 36.3 309.44 34.7667 311.773 31.7C314.14 28.6 315.323 24.6167 315.323 19.75C315.323 14.8833 314.023 10.95 311.423 7.95C308.857 4.91667 305.957 3.4 302.723 3.4ZM356.146 1.25C358.346 1.25 360.496 2.16667 362.596 4C364.696 5.8 366.379 8.13333 367.646 11C368.913 13.8667 369.546 16.7333 369.546 19.6C369.546 22.4333 368.913 25.2667 367.646 28.1C366.413 30.9 364.663 33.25 362.396 35.15C360.163 37.05 357.763 38 355.196 38H334.796V35.75H338.346C339.279 35.6167 339.963 35.1333 340.396 34.3V5.75C340.296 5.18333 340.029 4.7 339.596 4.3C339.196 3.86667 338.679 3.6 338.046 3.5H334.796V1.25H356.146ZM353.146 35.5C355.246 35.5 357.146 34.7167 358.846 33.15C360.546 31.5833 361.829 29.6167 362.696 27.25C363.596 24.85 364.046 22.2333 364.046 19.4C364.046 16.5333 363.596 13.9 362.696 11.5C361.796 9.06666 360.479 7.13333 358.746 5.7C357.046 4.26667 355.079 3.55 352.846 3.55H347.196C346.296 3.68333 345.613 4.18333 345.146 5.05V33.45C345.313 34.4167 345.829 35.1 346.696 35.5H353.146ZM418.304 35.75H421.104V38H405.204V35.75H408.704C409.404 35.75 409.754 35.5833 409.754 35.25C409.754 35.0167 409.62 34.7333 409.354 34.4L399.154 21.55H394.704V34.3C394.704 35.2667 395.454 35.75 396.954 35.75H400.254V38H384.054V35.75H387.654C388.154 35.75 388.62 35.6167 389.054 35.35C389.52 35.05 389.754 34.7 389.754 34.3V5.7C389.754 5.13333 389.52 4.61666 389.054 4.15C388.62 3.68333 388.054 3.45 387.354 3.45H384.054V1.2H402.204C405.837 1.2 408.687 2.21666 410.754 4.25C412.854 6.25 413.904 8.78333 413.904 11.85C413.904 17.55 410.704 20.7333 404.304 21.4L414.604 34.4C415.37 35.3 416.604 35.75 418.304 35.75ZM394.704 5.45V19.3H401.154C406.087 19.3 408.554 16.8 408.554 11.8C408.554 6.76667 407.004 4.05 403.904 3.65C402.87 3.51666 401.287 3.45 399.154 3.45C397.02 3.45 395.737 3.65 395.304 4.05C394.904 4.41666 394.704 4.88333 394.704 5.45ZM445.468 34.25C445.701 35.25 446.468 35.75 447.768 35.75H451.018V38H435.118V35.75L438.668 35.7C439.601 35.5667 440.285 35.0833 440.718 34.25V5.4C440.585 4.63333 439.801 4.13333 438.368 3.9H435.118V1.65H451.018V3.9H447.518C446.618 4.03333 445.935 4.53333 445.468 5.4V34.25ZM512.53 22.15V25.25H503.08V34.7H499.98V25.25H490.53V22.15H499.98V12.65H503.08V22.15H512.53ZM554.772 3.25H552.022V1H567.422V3.25H564.422C563.722 3.25 563.222 3.45 562.922 3.85C562.656 4.21666 562.522 4.56666 562.522 4.9V5.55L572.672 34L582.822 5.55V4.95C582.822 4.61667 582.656 4.28333 582.322 3.95C581.989 3.58333 581.522 3.35 580.922 3.25H577.922V1H590.972V3.25H588.472C587.872 3.35 587.306 3.61667 586.772 4.05C586.272 4.48333 585.922 4.98333 585.722 5.55L574.122 38H569.122L557.522 5.55C557.056 4.21667 556.139 3.45 554.772 3.25ZM640.691 35.75H643.441V38H628.541V35.75H631.541C632.241 35.75 632.725 35.55 632.991 35.15C633.291 34.75 633.441 34.4 633.441 34.1V33.45L630.241 24.6H616.241L613.141 33.45V34.05C613.141 34.3833 613.308 34.7333 613.641 35.1C613.975 35.4333 614.441 35.65 615.041 35.75H618.041V38H604.991V35.75H607.491C608.091 35.65 608.658 35.3833 609.191 34.95C609.691 34.5167 610.041 34.0167 610.241 33.45L621.841 1H626.341L637.941 33.45C638.408 34.7833 639.325 35.55 640.691 35.75ZM617.141 22.25H629.441L623.291 5L617.141 22.25ZM668.073 32.4C668.073 34.6333 669.556 35.75 672.523 35.75H673.623V38H658.923V35.75L660.173 35.7C663.073 35.6 664.523 34.5 664.523 32.4V5.4C664.39 4.63333 663.606 4.13333 662.173 3.9H658.923V1.65H668.173L689.873 27.3V7.4C689.873 5.06666 688.473 3.9 685.673 3.9H684.273V1.65H698.973V3.95H697.673C694.84 3.95 693.423 5.1 693.423 7.4V39.5L668.073 9.45V32.4ZM735.543 17.2C737.21 16.6667 738.043 15.5667 738.043 13.9V11.65H740.293V25.05H738.043V22.5C738.043 21.2 737.21 20.2 735.543 19.5H724.843V33.45C725.01 34.4167 725.526 35.1333 726.393 35.6L740.643 35.65C742.376 35.4167 743.243 34.4833 743.243 32.85V30.1H745.493V38H714.493V35.75H718.043C718.976 35.6167 719.66 35.1333 720.093 34.3V5.75C719.993 5.18333 719.726 4.7 719.293 4.3C718.893 3.86667 718.376 3.6 717.743 3.5H714.493V1.25H744.693V9.2H742.443V6.15C742.31 5.21667 741.476 4.36667 739.943 3.6H726.643C726.076 3.7 725.476 4.33333 724.843 5.5V17.2H735.543Z" fill="#9A7C44"/>
<path d="M135.638 219.65V219.15H139.988V250.05C140.088 250.617 140.338 251.117 140.738 251.55C141.171 251.95 141.688 252.2 142.288 252.3H145.938V255H129.338V252.3H133.288V252.25C133.888 252.183 134.388 251.95 134.788 251.55C135.221 251.117 135.488 250.617 135.588 250.05H135.638V227.95C134.871 228.317 133.821 228.5 132.488 228.5H129.288V225.5L129.988 225.55C131.388 225.55 132.538 225.2 133.438 224.5C134.338 223.8 134.921 222.9 135.188 221.8C135.488 220.667 135.638 219.95 135.638 219.65ZM175.128 218.6C178.728 218.6 181.511 220.233 183.478 223.5C185.478 226.767 186.478 231.25 186.478 236.95C186.478 241.083 185.861 244.65 184.628 247.65C183.428 250.617 181.728 252.767 179.528 254.1C178.028 255 176.561 255.45 175.128 255.45C171.861 255.45 169.145 253.833 166.978 250.6C164.845 247.333 163.778 242.783 163.778 236.95C163.778 227.983 165.978 222.267 170.378 219.8C171.811 219 173.395 218.6 175.128 218.6ZM175.128 252.95C176.828 252.95 178.345 251.483 179.678 248.55C181.045 245.583 181.728 242.033 181.728 237.9C181.728 226.667 179.528 221.05 175.128 221.05C173.228 221.05 171.645 222.433 170.378 225.2C169.145 227.933 168.528 231.483 168.528 235.85C168.528 244.417 169.895 249.817 172.628 252.05C173.361 252.65 174.195 252.95 175.128 252.95ZM229.058 252.05C226.925 249.55 225.858 246.3 225.858 242.3C225.858 238.267 226.925 235.1 229.058 232.8C231.225 230.5 233.942 229.35 237.208 229.35C240.475 229.35 243.092 230.583 245.058 233.05V223H241.308V222L247.258 218H249.258V251.7C249.458 251.933 249.708 252.05 250.008 252.05C250.208 252.05 250.825 251.4 251.858 250.1V252.35C251.325 254.55 250.242 255.65 248.608 255.65C246.975 255.65 245.792 254.467 245.058 252.1L245.108 251.95L245.058 251.85C243.058 254.45 240.425 255.75 237.158 255.75C233.925 255.75 231.225 254.517 229.058 252.05ZM230.808 242.45C230.842 245.483 231.492 247.917 232.758 249.75C234.025 251.583 235.792 252.5 238.058 252.5C242.225 252.5 244.558 249.533 245.058 243.6V240.9C244.758 235.367 242.425 232.583 238.058 232.55C235.958 232.55 234.242 233.417 232.908 235.15C231.575 236.883 230.875 239.317 230.808 242.45ZM287.076 253.3C284.143 254.933 280.976 255.75 277.576 255.75C277.51 255.75 277.443 255.75 277.376 255.75C273.343 255.75 270.16 254.583 267.826 252.25C265.526 249.917 264.376 246.683 264.376 242.55C264.376 238.417 265.51 235.25 267.776 233.05C270.276 230.683 273.426 229.5 277.226 229.5C281.06 229.5 283.86 230.7 285.626 233.1C287.426 235.5 288.326 238.533 288.326 242.2V243.4H269.126C269.326 246 270.21 248.25 271.776 250.15C273.443 252.083 275.776 253.05 278.776 253.05C281.776 253.05 284.61 252.067 287.276 250.1L287.076 253.3ZM284.226 240.8C284.126 235.333 281.893 232.6 277.526 232.6H277.426C272.66 232.6 269.893 235.333 269.126 240.8H284.226ZM346.844 234.2C348.511 233.667 349.344 232.567 349.344 230.9V228.65H351.594V242.05H349.344V239.5C349.344 238.2 348.511 237.2 346.844 236.5H337.644V250.45C337.811 251.417 338.327 252.133 339.194 252.6H343.594V255H327.294V252.75H330.844C331.777 252.617 332.461 252.133 332.894 251.3V222.75C332.794 222.183 332.527 221.7 332.094 221.3C331.694 220.867 331.177 220.6 330.544 220.5H327.294V218.25H357.494V226.2H355.244V223.15C355.111 222.217 354.277 221.367 352.744 220.6H339.444C338.877 220.7 338.277 221.333 337.644 222.5V234.2H346.844ZM395.592 253.3C392.659 254.933 389.492 255.75 386.092 255.75C386.025 255.75 385.959 255.75 385.892 255.75C381.859 255.75 378.675 254.583 376.342 252.25C374.042 249.917 372.892 246.683 372.892 242.55C372.892 238.417 374.025 235.25 376.292 233.05C378.792 230.683 381.942 229.5 385.742 229.5C389.575 229.5 392.375 230.7 394.142 233.1C395.942 235.5 396.842 238.533 396.842 242.2V243.4H377.642C377.842 246 378.725 248.25 380.292 250.15C381.959 252.083 384.292 253.05 387.292 253.05C390.292 253.05 393.125 252.067 395.792 250.1L395.592 253.3ZM392.742 240.8C392.642 235.333 390.409 232.6 386.042 232.6H385.942C381.175 232.6 378.409 235.333 377.642 240.8H392.742ZM423.019 252.5C425.286 252.5 427.053 251.583 428.319 249.75C429.586 247.917 430.236 245.483 430.269 242.45C430.203 239.317 429.503 236.883 428.169 235.15C426.836 233.417 425.119 232.55 423.019 232.55C418.653 232.583 416.319 235.367 416.019 240.9V243.6C416.519 249.533 418.853 252.5 423.019 252.5ZM416.019 233.05C417.986 230.583 420.603 229.35 423.869 229.35C427.136 229.35 429.836 230.5 431.969 232.8C434.136 235.1 435.219 238.267 435.219 242.3C435.219 246.3 434.136 249.55 431.969 252.05C429.836 254.517 427.136 255.75 423.869 255.75C420.636 255.75 418.019 254.45 416.019 251.85V255.15H411.819V223H408.069V222L414.019 218H416.019V233.05ZM466.237 229.25H466.337C467.271 229.25 468.054 229.283 468.687 229.35C468.187 231.283 467.937 232.6 467.937 233.3C467.271 233.2 466.487 233.15 465.587 233.15C462.954 233.15 460.771 234.3 459.037 236.6C457.337 238.867 456.487 241.133 456.487 243.4V251.25C456.721 252.25 457.321 252.75 458.287 252.75H460.687V255H448.137V252.75L450.787 252.7C451.454 252.567 451.971 252.083 452.337 251.25V234.95H448.587V233.95L454.537 229.95H456.487V236.4C458.454 231.633 461.704 229.25 466.237 229.25ZM504.01 253.3C501.077 254.933 497.91 255.75 494.51 255.75C494.443 255.75 494.377 255.75 494.31 255.75C490.277 255.75 487.093 254.583 484.76 252.25C482.46 249.917 481.31 246.683 481.31 242.55C481.31 238.417 482.443 235.25 484.71 233.05C487.21 230.683 490.36 229.5 494.16 229.5C497.993 229.5 500.793 230.7 502.56 233.1C504.36 235.5 505.26 238.533 505.26 242.2V243.4H486.06C486.26 246 487.143 248.25 488.71 250.15C490.377 252.083 492.71 253.05 495.71 253.05C498.71 253.05 501.543 252.067 504.21 250.1L504.01 253.3ZM501.16 240.8C501.06 235.333 498.827 232.6 494.46 232.6H494.36C489.593 232.6 486.827 235.333 486.06 240.8H501.16ZM536.237 229.25H536.337C537.271 229.25 538.054 229.283 538.687 229.35C538.187 231.283 537.937 232.6 537.937 233.3C537.271 233.2 536.487 233.15 535.587 233.15C532.954 233.15 530.771 234.3 529.037 236.6C527.337 238.867 526.487 241.133 526.487 243.4V251.25C526.721 252.25 527.321 252.75 528.287 252.75H530.687V255H518.137V252.75L520.787 252.7C521.454 252.567 521.971 252.083 522.337 251.25V234.95H518.587V233.95L524.537 229.95H526.487V236.4C528.454 231.633 531.704 229.25 536.237 229.25ZM562.76 255.95C559.393 255.95 556.543 254.65 554.21 252.05C551.877 249.45 550.71 246.333 550.71 242.7C550.71 239.067 551.877 235.917 554.21 233.25C556.543 230.583 559.393 229.25 562.76 229.25C566.16 229.25 569.077 230.583 571.51 233.25C573.977 235.917 575.21 239.067 575.21 242.7C575.21 246.333 573.977 249.45 571.51 252.05C569.077 254.65 566.16 255.95 562.76 255.95ZM570.26 242.65C570.26 239.783 569.46 237.317 567.86 235.25C566.293 233.15 564.493 232.1 562.46 232.1C560.427 232.1 558.727 233.167 557.36 235.3C556.027 237.4 555.36 239.9 555.36 242.8C555.36 245.667 556.143 248.117 557.71 250.15C559.31 252.15 561.093 253.15 563.06 253.15C565.06 253.15 566.76 252.117 568.16 250.05C569.56 247.983 570.26 245.517 570.26 242.65ZM616.89 252.05C614.757 249.55 613.69 246.3 613.69 242.3C613.69 238.267 614.757 235.1 616.89 232.8C619.057 230.5 621.774 229.35 625.04 229.35C628.307 229.35 630.924 230.583 632.89 233.05V223H629.14V222L635.09 218H637.09V251.7C637.29 251.933 637.54 252.05 637.84 252.05C638.04 252.05 638.657 251.4 639.69 250.1V252.35C639.157 254.55 638.074 255.65 636.44 255.65C634.807 255.65 633.624 254.467 632.89 252.1L632.94 251.95L632.89 251.85C630.89 254.45 628.257 255.75 624.99 255.75C621.757 255.75 619.057 254.517 616.89 252.05ZM618.64 242.45C618.674 245.483 619.324 247.917 620.59 249.75C621.857 251.583 623.624 252.5 625.89 252.5C630.057 252.5 632.39 249.533 632.89 243.6V240.9C632.59 235.367 630.257 232.583 625.89 232.55C623.79 232.55 622.074 233.417 620.74 235.15C619.407 236.883 618.707 239.317 618.64 242.45ZM674.908 253.3C671.975 254.933 668.808 255.75 665.408 255.75C665.342 255.75 665.275 255.75 665.208 255.75C661.175 255.75 657.992 254.583 655.658 252.25C653.358 249.917 652.208 246.683 652.208 242.55C652.208 238.417 653.342 235.25 655.608 233.05C658.108 230.683 661.258 229.5 665.058 229.5C668.892 229.5 671.692 230.7 673.458 233.1C675.258 235.5 676.158 238.533 676.158 242.2V243.4H656.958C657.158 246 658.042 248.25 659.608 250.15C661.275 252.083 663.608 253.05 666.608 253.05C669.608 253.05 672.442 252.067 675.108 250.1L674.908 253.3ZM672.058 240.8C671.958 235.333 669.725 232.6 665.358 232.6H665.258C660.492 232.6 657.725 235.333 656.958 240.8H672.058ZM727.076 219C733.476 219 736.676 222.133 736.676 228.4C736.676 230.567 736.193 232.317 735.226 233.65C734.259 234.983 732.359 236.7 729.526 238.8C726.726 240.867 724.709 242.717 723.476 244.35C721.843 246.55 721.009 248.717 720.976 250.85H731.776C732.576 250.85 733.459 250.55 734.426 249.95C735.426 249.35 736.226 248.733 736.826 248.1L737.676 247.2L736.026 255.05H716.676V250.85C716.676 248.25 718.009 245.467 720.676 242.5C721.909 241.133 723.226 239.833 724.626 238.6C728.293 235.267 730.609 232.85 731.576 231.35C732.043 230.55 732.276 229.467 732.276 228.1C732.276 226.7 731.626 225.5 730.326 224.5C729.026 223.5 727.626 223 726.126 223C724.626 223 723.093 223.233 721.526 223.7C719.993 224.167 718.693 224.717 717.626 225.35L717.126 225.65L716.526 223.1C717.093 222.433 718.509 221.583 720.776 220.55C723.043 219.517 725.143 219 727.076 219ZM764.366 218.6C767.966 218.6 770.75 220.233 772.716 223.5C774.716 226.767 775.716 231.25 775.716 236.95C775.716 241.083 775.1 244.65 773.866 247.65C772.666 250.617 770.966 252.767 768.766 254.1C767.266 255 765.8 255.45 764.366 255.45C761.1 255.45 758.383 253.833 756.216 250.6C754.083 247.333 753.016 242.783 753.016 236.95C753.016 227.983 755.216 222.267 759.616 219.8C761.05 219 762.633 218.6 764.366 218.6ZM764.366 252.95C766.066 252.95 767.583 251.483 768.916 248.55C770.283 245.583 770.966 242.033 770.966 237.9C770.966 226.667 768.766 221.05 764.366 221.05C762.466 221.05 760.883 222.433 759.616 225.2C758.383 227.933 757.766 231.483 757.766 235.85C757.766 244.417 759.133 249.817 761.866 252.05C762.6 252.65 763.433 252.95 764.366 252.95ZM802.056 219C808.456 219 811.656 222.133 811.656 228.4C811.656 230.567 811.173 232.317 810.206 233.65C809.24 234.983 807.34 236.7 804.506 238.8C801.706 240.867 799.69 242.717 798.456 244.35C796.823 246.55 795.99 248.717 795.956 250.85H806.756C807.556 250.85 808.44 250.55 809.406 249.95C810.406 249.35 811.206 248.733 811.806 248.1L812.656 247.2L811.006 255.05H791.656V250.85C791.656 248.25 792.99 245.467 795.656 242.5C796.89 241.133 798.206 239.833 799.606 238.6C803.273 235.267 805.59 232.85 806.556 231.35C807.023 230.55 807.256 229.467 807.256 228.1C807.256 226.7 806.606 225.5 805.306 224.5C804.006 223.5 802.606 223 801.106 223C799.606 223 798.073 223.233 796.506 223.7C794.973 224.167 793.673 224.717 792.606 225.35L792.106 225.65L791.506 223.1C792.073 222.433 793.49 221.583 795.756 220.55C798.023 219.517 800.123 219 802.056 219ZM852.747 246.1H846.647V250.5H846.697C846.797 251.067 847.047 251.567 847.447 252C847.88 252.4 848.397 252.65 848.997 252.75H852.247V255H836.647V252.75H840.147V252.7C840.747 252.633 841.263 252.4 841.697 252C842.13 251.567 842.397 251.067 842.497 250.5V246.1H826.947L842.197 218.85H846.647V242.55H852.747V246.1ZM831.947 242.55H842.497V224.45L831.947 242.55Z" fill="#9A7C44"/>
<path d="M138.668 122.734L136.559 123.262C136.207 123.613 135.211 123.906 133.57 124.141C131.93 124.375 130.348 124.375 128.824 124.141C127.301 123.906 126.598 123.32 126.715 122.383C126.48 118.984 128.648 117.461 133.219 117.812C138.023 118.164 140.836 116.641 141.656 113.242L149.918 81.7773L153.258 78.4375C154.43 78.7891 155.016 79.8438 155.016 81.6016L154.84 83.3594L146.578 116.582V117.461C147.516 117.812 148.922 117.988 150.797 117.988C152.672 117.988 156.012 117.344 160.816 116.055C165.621 114.648 168.375 113.945 169.078 113.945C169.078 120.391 164.742 123.613 156.07 123.613C153.375 123.613 150.328 123.32 146.93 122.734C144.352 128.594 143.062 133.984 143.062 138.906C143.062 143.711 144.352 148.164 146.93 152.266C149.508 156.25 153.492 158.242 158.883 158.242C164.391 157.422 168.609 156.133 171.539 154.375C174.586 152.5 176.812 151.211 178.219 150.508C179.625 149.688 181.031 149.277 182.438 149.277C183.844 149.277 185.367 149.453 187.008 149.805C183.727 155.664 174.234 159.531 158.531 161.406C158.18 161.406 157.887 161.406 157.652 161.406C149.566 161.406 144.117 158.418 141.305 152.441C139.195 148.105 138.141 143.125 138.141 137.5C138.141 131.758 138.316 126.836 138.668 122.734ZM250.289 151.914C243.961 156.484 237.047 158.77 229.547 158.77C225.68 158.77 222.516 157.598 220.055 155.254C217.711 152.91 216.246 149.98 215.66 146.465C215.074 142.832 214.664 139.609 214.43 136.797C214.312 133.867 214.254 131.465 214.254 129.59C214.254 127.598 214.371 125.547 214.605 123.438C214.254 122.148 212.613 121.504 209.684 121.504C206.871 121.504 204.117 122.969 201.422 125.898C198.727 128.828 196.5 132.344 194.742 136.445C193.102 140.43 191.461 144.414 189.82 148.398C188.297 152.383 186.832 155.371 185.426 157.363C184.02 159.355 182.848 160.352 181.91 160.352C180.973 160.352 180.27 160.234 179.801 160C179.684 159.297 179.625 158.477 179.625 157.539C179.625 151.68 181.676 139.082 185.777 119.746C189.879 100.41 193.922 83.8281 197.906 70C198.141 69.1797 198.785 67.4219 199.84 64.7266C201.012 61.9141 202.242 59.9219 203.531 58.75C204.82 57.4609 206.168 56.8164 207.574 56.8164C208.98 56.8164 210.094 57.1094 210.914 57.6953V57.3438C212.086 58.1641 213.023 60.1562 213.727 63.3203C214.43 66.4844 214.781 69.0039 214.781 70.8789C214.781 81.8945 211.91 91.9727 206.168 101.113C203.824 104.863 201.48 108.379 199.137 111.66C196.793 114.941 194.918 118.047 193.512 120.977C192.223 123.906 191.578 126.074 191.578 127.48C191.578 128.887 191.578 129.766 191.578 130.117C198.023 121.094 204.879 116.582 212.145 116.582C214.723 116.582 216.598 116.875 217.77 117.461C218.707 118.047 219.293 118.867 219.527 119.922C219.762 120.859 219.879 123.379 219.879 127.48C219.996 131.465 220.172 134.922 220.406 137.852C220.758 140.664 221.285 143.711 221.988 146.992C222.691 150.156 223.629 152.207 224.801 153.145C226.09 154.082 227.262 154.551 228.316 154.551C229.371 154.551 230.484 154.258 231.656 153.672C241.969 148.633 248.766 146.113 252.047 146.113C253.57 146.113 254.332 146.582 254.332 147.52C254.332 148.457 252.984 149.922 250.289 151.914ZM202.828 72.1094C198.492 88.8672 196.266 98.418 196.148 100.762C196.148 102.988 196.148 104.219 196.148 104.453L196.324 106.914C201.832 104.688 205.758 94.9609 208.102 77.7344C208.805 72.6953 209.156 68.5938 209.156 65.4297C209.156 62.2656 208.629 60.6836 207.574 60.6836C206.52 60.6836 204.938 64.4922 202.828 72.1094ZM250.816 141.543C250.699 140.488 250.641 139.492 250.641 138.555C250.641 131.055 253.102 123.32 258.023 115.352C263.062 107.383 269.508 103.398 277.359 103.398C278.883 103.398 280.113 103.867 281.051 104.805C281.988 105.625 282.457 107.09 282.457 109.199C282.457 111.191 281.871 113.594 280.699 116.406C279.645 119.102 277.945 121.855 275.602 124.668C273.375 127.48 271.441 129.766 269.801 131.523C268.16 133.281 265.816 135.566 262.77 138.379C259.84 141.191 258.082 142.891 257.496 143.477C257.379 144.414 257.32 144.941 257.32 145.059C257.32 148.223 258.844 150.684 261.891 152.441C264.938 154.199 268.102 155.078 271.383 155.078C279.234 155.078 285.445 153.672 290.016 150.859C294.703 148.047 300.094 143.301 306.188 136.621C307.125 135.449 307.652 134.512 307.77 133.809C308.004 133.105 308.648 132.344 309.703 131.523C310.875 131.992 311.461 133.105 311.461 134.863C310.289 138.496 307.945 142.422 304.43 146.641C300.914 150.742 296.754 154.258 291.949 157.188C285.27 161.055 279.586 162.988 274.898 162.988C270.328 162.988 265.875 161.406 261.539 158.242C257.203 155.078 253.629 149.512 250.816 141.543ZM277.711 109.902C272.672 109.902 267.984 112.598 263.648 117.988C259.312 123.379 257.145 128.535 257.145 133.457C257.145 135.098 257.262 136.27 257.496 136.973C261.832 134.629 266.285 130.645 270.855 125.02C275.426 119.277 277.711 114.238 277.711 109.902ZM391.441 128.008C391.441 121.562 391.676 114.121 392.145 105.684C393.316 105.684 394.312 106.152 395.133 107.09C396.07 107.91 396.48 109.199 396.363 110.957C396.246 112.715 396.188 117.695 396.188 125.898C396.188 134.102 396.305 139.316 396.539 141.543C397.008 148.34 398.355 151.738 400.582 151.738C401.754 151.738 403.219 150.801 404.977 148.926C409.195 144.238 413.062 136.797 416.578 126.602C417.867 122.617 418.512 120.098 418.512 119.043C418.512 117.871 418.512 117.168 418.512 116.934H422.73C422.965 118.223 423.375 121.797 423.961 127.656C425.602 141.602 427.418 149.688 429.41 151.914C432.105 151.328 434.039 147.578 435.211 140.664C436.383 133.633 436.969 127.949 436.969 123.613L440.309 120.098C441.246 123.145 441.891 125.195 442.242 126.25C442.711 127.305 443.414 128.418 444.352 129.59C445.289 130.762 446.344 131.465 447.516 131.699C448.805 131.934 450.562 132.051 452.789 132.051C457.125 129.238 459.703 127.832 460.523 127.832C461.461 127.832 461.93 128.008 461.93 128.359C461.93 130 460.465 131.875 457.535 133.984C454.723 135.977 452.965 136.973 452.262 136.973C451.559 136.973 451.148 136.973 451.031 136.973C446.695 136.973 443.707 136.387 442.066 135.215C441.949 135.684 441.656 137.09 441.188 139.434C440.719 141.777 440.191 143.887 439.605 145.762C439.02 147.52 438.258 149.453 437.32 151.562C435.328 156.25 432.398 158.594 428.531 158.594C426.891 158.594 425.484 157.363 424.312 154.902C422.789 151.973 421.441 148.34 420.27 144.004C419.098 139.551 418.512 137.207 418.512 136.973C410.191 151.973 403.805 159.473 399.352 159.473C394.078 159.473 391.441 148.984 391.441 128.008ZM457.008 141.543C456.891 140.488 456.832 139.492 456.832 138.555C456.832 131.055 459.293 123.32 464.215 115.352C469.254 107.383 475.699 103.398 483.551 103.398C485.074 103.398 486.305 103.867 487.242 104.805C488.18 105.625 488.648 107.09 488.648 109.199C488.648 111.191 488.062 113.594 486.891 116.406C485.836 119.102 484.137 121.855 481.793 124.668C479.566 127.48 477.633 129.766 475.992 131.523C474.352 133.281 472.008 135.566 468.961 138.379C466.031 141.191 464.273 142.891 463.688 143.477C463.57 144.414 463.512 144.941 463.512 145.059C463.512 148.223 465.035 150.684 468.082 152.441C471.129 154.199 474.293 155.078 477.574 155.078C485.426 155.078 491.637 153.672 496.207 150.859C500.895 148.047 506.285 143.301 512.379 136.621C513.316 135.449 513.844 134.512 513.961 133.809C514.195 133.105 514.84 132.344 515.895 131.523C517.066 131.992 517.652 133.105 517.652 134.863C516.48 138.496 514.137 142.422 510.621 146.641C507.105 150.742 502.945 154.258 498.141 157.188C491.461 161.055 485.777 162.988 481.09 162.988C476.52 162.988 472.066 161.406 467.73 158.242C463.395 155.078 459.82 149.512 457.008 141.543ZM483.902 109.902C478.863 109.902 474.176 112.598 469.84 117.988C465.504 123.379 463.336 128.535 463.336 133.457C463.336 135.098 463.453 136.27 463.688 136.973C468.023 134.629 472.477 130.645 477.047 125.02C481.617 119.277 483.902 114.238 483.902 109.902ZM514.84 146.289C517.184 138.555 519.703 132.344 522.398 127.656C525.211 122.969 528.551 119.629 532.418 117.637C536.285 115.527 539.801 114.238 542.965 113.77C546.129 113.184 550.523 112.891 556.148 112.891C556.5 111.484 557.086 108.73 557.906 104.629C558.727 100.41 559.312 97.5977 559.664 96.1914C560.133 94.668 560.777 92.3828 561.598 89.3359C563.004 84.2969 564.41 80.4883 565.816 77.9102C567.34 75.2148 568.277 73.5156 568.629 72.8125C568.98 72.1094 569.215 71.6406 569.332 71.4062C569.566 71.0547 569.859 70.7031 570.211 70.3516C570.68 69.8828 571.441 69.6484 572.496 69.6484C576.129 69.6484 577.945 73.5156 577.945 81.25V82.832C577.945 88.9258 575.367 97.3633 570.211 108.145C565.055 118.809 562.477 126.953 562.477 132.578C562.477 145.117 565.875 151.387 572.672 151.387C574.898 151.387 577.945 150.508 581.812 148.75C585.68 146.992 588.727 146.113 590.953 146.113L592.711 146.289C590.719 149.336 587.73 151.738 583.746 153.496C579.879 155.254 576.656 156.133 574.078 156.133C571.617 156.133 569.918 156.074 568.98 155.957C568.043 155.84 567.164 155.605 566.344 155.254C565.523 154.785 564.82 154.434 564.234 154.199C563.766 153.965 563.18 153.438 562.477 152.617C561.891 151.68 561.422 151.035 561.07 150.684C560.836 150.332 560.426 149.512 559.84 148.223C559.254 146.934 558.844 146.113 558.609 145.762C558.492 145.41 558.082 144.414 557.379 142.773C556.793 141.133 556.383 140.078 556.148 139.609C555.797 139.961 554.449 141.426 552.105 144.004C549.762 146.465 548.121 148.164 547.184 149.102C546.246 149.922 544.605 151.328 542.262 153.32C540.035 155.312 538.16 156.719 536.637 157.539C532.301 159.883 528.434 161.055 525.035 161.055C521.754 161.055 519.352 160.293 517.828 158.77C516.422 157.129 515.543 155.43 515.191 153.672C514.957 151.797 514.84 149.336 514.84 146.289ZM546.656 119.395C540.094 119.395 534.176 122.441 528.902 128.535C523.746 134.629 521.168 140.781 521.168 146.992C521.168 153.086 522.809 156.133 526.09 156.133C530.66 156.133 536.52 152.676 543.668 145.762C550.934 138.73 554.566 132.754 554.566 127.832C554.566 124.902 553.922 122.793 552.633 121.504C551.461 120.098 549.469 119.395 546.656 119.395ZM572.848 78.0859C569.801 82.3047 567.281 87.9883 565.289 95.1367C563.414 102.168 562.477 108.086 562.477 112.891C562.477 113.125 562.535 113.652 562.652 114.473L564.234 112.891C565.641 111.484 568.512 103.164 572.848 87.9297L573.023 85.8203C573.023 84.4141 573.023 83.5352 573.023 83.1836C573.023 82.832 572.965 81.9531 572.848 80.5469C572.848 79.1406 572.848 78.3203 572.848 78.0859ZM587.965 146.289C590.309 138.555 592.828 132.344 595.523 127.656C598.336 122.969 601.676 119.629 605.543 117.637C609.41 115.527 612.926 114.238 616.09 113.77C619.254 113.184 623.648 112.891 629.273 112.891C629.625 111.484 630.211 108.73 631.031 104.629C631.852 100.41 632.438 97.5977 632.789 96.1914C633.258 94.668 633.902 92.3828 634.723 89.3359C636.129 84.2969 637.535 80.4883 638.941 77.9102C640.465 75.2148 641.402 73.5156 641.754 72.8125C642.105 72.1094 642.34 71.6406 642.457 71.4062C642.691 71.0547 642.984 70.7031 643.336 70.3516C643.805 69.8828 644.566 69.6484 645.621 69.6484C649.254 69.6484 651.07 73.5156 651.07 81.25V82.832C651.07 88.9258 648.492 97.3633 643.336 108.145C638.18 118.809 635.602 126.953 635.602 132.578C635.602 145.117 639 151.387 645.797 151.387C648.023 151.387 651.07 150.508 654.938 148.75C658.805 146.992 661.852 146.113 664.078 146.113L665.836 146.289C663.844 149.336 660.855 151.738 656.871 153.496C653.004 155.254 649.781 156.133 647.203 156.133C644.742 156.133 643.043 156.074 642.105 155.957C641.168 155.84 640.289 155.605 639.469 155.254C638.648 154.785 637.945 154.434 637.359 154.199C636.891 153.965 636.305 153.438 635.602 152.617C635.016 151.68 634.547 151.035 634.195 150.684C633.961 150.332 633.551 149.512 632.965 148.223C632.379 146.934 631.969 146.113 631.734 145.762C631.617 145.41 631.207 144.414 630.504 142.773C629.918 141.133 629.508 140.078 629.273 139.609C628.922 139.961 627.574 141.426 625.23 144.004C622.887 146.465 621.246 148.164 620.309 149.102C619.371 149.922 617.73 151.328 615.387 153.32C613.16 155.312 611.285 156.719 609.762 157.539C605.426 159.883 601.559 161.055 598.16 161.055C594.879 161.055 592.477 160.293 590.953 158.77C589.547 157.129 588.668 155.43 588.316 153.672C588.082 151.797 587.965 149.336 587.965 146.289ZM619.781 119.395C613.219 119.395 607.301 122.441 602.027 128.535C596.871 134.629 594.293 140.781 594.293 146.992C594.293 153.086 595.934 156.133 599.215 156.133C603.785 156.133 609.645 152.676 616.793 145.762C624.059 138.73 627.691 132.754 627.691 127.832C627.691 124.902 627.047 122.793 625.758 121.504C624.586 120.098 622.594 119.395 619.781 119.395ZM645.973 78.0859C642.926 82.3047 640.406 87.9883 638.414 95.1367C636.539 102.168 635.602 108.086 635.602 112.891C635.602 113.125 635.66 113.652 635.777 114.473L637.359 112.891C638.766 111.484 641.637 103.164 645.973 87.9297L646.148 85.8203C646.148 84.4141 646.148 83.5352 646.148 83.1836C646.148 82.832 646.09 81.9531 645.973 80.5469C645.973 79.1406 645.973 78.3203 645.973 78.0859ZM662.848 122.383L663.551 120.098C665.895 112.598 667.887 108.848 669.527 108.848C671.871 108.848 673.043 109.727 673.043 111.484C673.043 111.836 672.984 112.188 672.867 112.539C668.414 123.438 666.188 133.809 666.188 143.652C666.188 148.105 667.301 151.855 669.527 154.902C671.754 157.832 675.152 159.297 679.723 159.297C691.207 154.844 698.414 152.617 701.344 152.617C702.281 152.617 702.75 152.852 702.75 153.32C702.75 154.727 699.703 156.777 693.609 159.473C687.516 162.051 682.711 163.34 679.195 163.34C675.797 163.34 673.219 163.047 671.461 162.461C669.703 161.992 668.414 161.523 667.594 161.055C666.773 160.586 665.777 159.59 664.605 158.066C663.434 156.426 662.672 154.316 662.32 151.738C661.969 149.043 661.793 145.234 661.793 140.312C661.793 135.391 662.145 129.414 662.848 122.383ZM737.027 141.719C737.027 139.609 737.027 135.977 737.027 130.82C737.145 125.547 737.203 121.035 737.203 117.285C733.922 117.988 729.117 122.207 722.789 129.941C716.578 137.676 713.18 141.719 712.594 142.07C708.023 148.164 704.449 152.5 701.871 155.078C700.816 156.484 699.117 157.188 696.773 157.188V153.32L704.332 128.887C704.332 120.332 705.797 114.004 708.727 109.902C709.547 108.73 710.309 108.145 711.012 108.145C712.184 108.145 712.77 110.137 712.77 114.121C712.77 117.988 712.184 122.324 711.012 127.129C709.84 131.816 709.254 135.742 709.254 138.906C710.191 137.969 713.004 134.688 717.691 129.062C722.379 123.438 725.191 120.156 726.129 119.219C726.949 118.75 728.355 117.578 730.348 115.703C734.566 111.953 738.258 110.078 741.422 110.078C743.18 110.078 744.293 110.664 744.762 111.836C744.879 113.125 744.938 115.234 744.938 118.164C744.938 120.977 744.469 125.488 743.531 131.699C742.594 137.793 742.066 142.656 741.949 146.289C741.949 151.797 744.234 154.551 748.805 154.551C752.086 154.551 755.25 153.672 758.297 151.914C761.344 150.039 763.805 147.988 765.68 145.762C767.555 143.418 769.723 140.781 772.184 137.852C774.645 134.805 776.812 132.578 778.688 131.172V132.93C778.688 138.555 775.055 144.414 767.789 150.508C760.523 156.484 753.902 159.473 747.926 159.473H742.125C740.367 158.301 739.195 157.188 738.609 156.133C738.141 155.078 737.789 154.316 737.555 153.848C737.32 153.379 737.145 152.676 737.027 151.738C737.027 150.684 737.027 149.922 737.027 149.453V141.719ZM814.02 122.559L812.613 158.77C812.613 158.887 812.613 159.414 812.613 160.352C812.73 161.289 812.789 161.875 812.789 162.109C816.305 160.703 821.52 158.008 828.434 154.023C835.348 149.922 841.734 147.051 847.594 145.41C848.766 146.113 849.352 146.992 849.352 148.047C849.352 148.281 846.656 149.688 841.266 152.266C824.391 160.469 814.312 166.504 811.031 170.371C809.273 188.418 807.809 200.137 806.637 205.527C805.582 210.918 804.879 214.316 804.527 215.723C804.293 217.246 803.648 219.414 802.594 222.227C801.539 225.039 800.426 227.09 799.254 228.379C796.09 231.895 792.457 233.652 788.355 233.652C784.254 233.652 780.211 232.832 776.227 231.191C772.359 229.668 769.547 227.676 767.789 225.215C767.555 224.043 767.438 222.109 767.438 219.414C767.438 210.742 772.066 200.781 781.324 189.531C782.027 188.945 784.195 187.188 787.828 184.258C797.555 176.406 803.121 171.777 804.527 170.371C805.699 168.379 806.285 164.512 806.285 158.77C806.285 158.418 806.227 157.305 806.109 155.43C806.109 153.555 806.109 152.441 806.109 152.09C797.672 157.715 790.641 160.527 785.016 160.527C780.094 160.293 776.52 157.539 774.293 152.266C773.355 149.922 772.887 147.109 772.887 143.828C772.887 140.43 774.41 136.504 777.457 132.051C782.379 125.02 790.523 119.863 801.891 116.582C809.977 116.582 814.02 118.574 814.02 122.559ZM772.711 218.711C772.711 221.641 774.352 223.984 777.633 225.742C780.914 227.617 784.254 228.555 787.652 228.555C791.168 228.555 794.156 226.445 796.617 222.227C799.195 218.125 800.953 212.969 801.891 206.758C803.648 196.328 804.527 187.773 804.527 181.094V177.051C796.793 182.09 789.527 188.477 782.73 196.211C776.051 204.062 772.711 211.562 772.711 218.711ZM779.391 151.387C779.391 154.199 781.5 155.605 785.719 155.605C792.867 155.371 798.375 152.559 802.242 147.168C806.109 141.777 808.043 137.09 808.043 133.105C808.043 132.754 808.043 132.402 808.043 132.051V130.293C808.043 127.715 807.457 125.664 806.285 124.141C805.113 122.5 803.473 121.68 801.363 121.68C800.895 121.562 800.367 121.504 799.781 121.504C794.508 121.504 789.645 124.492 785.191 130.469C780.855 136.445 778.688 141.777 778.688 146.465C778.688 148.105 778.922 149.746 779.391 151.387Z" fill="#9A7C44"/>
</svg>
